<svg xmlns="http://www.w3.org/2000/svg" width="512" height="512" viewBox="0 0 512 512"><rect width="512" height="512" rx="92" fill="#0f2e5d"/><path d="M256 70 425 150v125c0 94-70 143-169 183C157 418 87 369 87 275V150z" fill="#f59e0b"/><path d="M256 112 385 173v101c0 71-49 111-129 146-80-35-129-75-129-146V173z" fill="#0f2e5d"/><path d="M143 300h226l-31-44H174zM174 245h164l-27-38H201zM207 190h98l-49-61z" fill="#fff"/><text x="256" y="365" font-family="Arial,sans-serif" font-size="50" font-weight="700" text-anchor="middle" fill="#fff">KR</text></svg>
